<?xml version="1.0" encoding="utf-8"?>
<!-- Generator: Adobe Illustrator 24.1.2, SVG Export Plug-In . SVG Version: 6.00 Build 0)  -->
<svg version="1.1" id="Layer_1" xmlns="http://www.w3.org/2000/svg" xmlns:xlink="http://www.w3.org/1999/xlink" x="0px" y="0px"
	 viewBox="0 0 1265.1 1352.4" style="enable-background:new 0 0 1265.1 1352.4;" xml:space="preserve">
<style type="text/css">
	.st0{fill:#853D25;}
	.st1{fill:#F4DEB3;}
	.st2{fill:#CD853E;}
	.st3{fill:#D2B48C;}
</style>
<g>
	<rect class="st0" width="1265.1" height="1352.4"/>
	<rect x="40.3" y="43.1" class="st1" width="560" height="1266.3"/>
	<rect x="664.8" y="43.1" class="st1" width="560" height="1266.3"/>
	<polygon class="st2" points="86.9,607.2 133.6,43.1 40.3,43.1 	"/>
	<polygon class="st3" points="180.2,607.2 226.9,43.1 133.6,43.1 	"/>
	<polygon class="st2" points="273.6,607.2 320.2,43.1 226.9,43.1 	"/>
	<polygon class="st3" points="366.9,607.2 413.6,43.1 320.2,43.1 	"/>
	<polygon class="st2" points="460.2,607.2 506.9,43.1 413.6,43.1 	"/>
	<polygon class="st3" points="553.6,607.2 600.2,43.1 506.9,43.1 	"/>
	<polygon class="st2" points="711.4,607.2 758.1,43.1 664.7,43.1 	"/>
	<polygon class="st3" points="804.7,607.2 851.4,43.1 758.1,43.1 	"/>
	<polygon class="st2" points="898.1,607.2 944.7,43.1 851.4,43.1 	"/>
	<polygon class="st3" points="991.4,607.2 1038.1,43.1 944.7,43.1 	"/>
	<polygon class="st2" points="1084.7,607.2 1131.4,43.1 1038.1,43.1 	"/>
	<polygon class="st3" points="1178.1,607.2 1224.7,43.1 1131.4,43.1 	"/>
	<polygon class="st3" points="86.9,745.2 133.6,1309.3 40.3,1309.3 	"/>
	<polygon class="st2" points="180.2,745.2 226.9,1309.3 133.6,1309.3 	"/>
	<polygon class="st3" points="273.6,745.2 320.2,1309.3 226.9,1309.3 	"/>
	<polygon class="st2" points="366.9,745.2 413.6,1309.3 320.2,1309.3 	"/>
	<polygon class="st3" points="460.2,745.2 506.9,1309.3 413.6,1309.3 	"/>
	<polygon class="st2" points="553.6,745.2 600.2,1309.3 506.9,1309.3 	"/>
	<polygon class="st3" points="711.5,745.2 758.2,1309.3 664.9,1309.3 	"/>
	<polygon class="st2" points="804.8,745.2 851.5,1309.3 758.2,1309.3 	"/>
	<polygon class="st3" points="898.2,745.2 944.8,1309.3 851.5,1309.3 	"/>
	<polygon class="st2" points="991.5,745.2 1038.2,1309.3 944.8,1309.3 	"/>
	<polygon class="st3" points="1084.8,745.2 1131.5,1309.3 1038.2,1309.3 	"/>
	<polygon class="st2" points="1178.2,745.2 1224.8,1309.3 1131.5,1309.3 	"/>
</g>
</svg>
